<svg width="64" height="64" viewBox="0 0 64 64" fill="none" xmlns="http://www.w3.org/2000/svg">
<path d="M63.25 39.5V57C63.25 58.6576 62.5915 60.2473 61.4194 61.4194C60.2473 62.5915 58.6576 63.25 57 63.25H7C5.3424 63.25 3.75269 62.5915 2.58058 61.4194C1.40848 60.2473 0.75 58.6576 0.75 57V39.5C0.75 38.5054 1.14509 37.5516 1.84835 36.8483C2.55161 36.1451 3.50544 35.75 4.5 35.75C5.49456 35.75 6.44839 36.1451 7.15165 36.8483C7.85491 37.5516 8.25 38.5054 8.25 39.5V55.75H55.75V39.5C55.75 38.5054 56.1451 37.5516 56.8484 36.8483C57.5516 36.1451 58.5054 35.75 59.5 35.75C60.4946 35.75 61.4484 36.1451 62.1516 36.8483C62.8549 37.5516 63.25 38.5054 63.25 39.5ZM22.1531 19.6531L28.25 13.5625V39.5C28.25 40.4946 28.6451 41.4484 29.3483 42.1516C30.0516 42.8549 31.0054 43.25 32 43.25C32.9946 43.25 33.9484 42.8549 34.6516 42.1516C35.3549 41.4484 35.75 40.4946 35.75 39.5V13.5625L41.8469 19.6625C42.5514 20.367 43.5068 20.7628 44.5031 20.7628C45.4994 20.7628 46.4549 20.367 47.1594 19.6625C47.8639 18.958 48.2596 18.0025 48.2596 17.0062C48.2596 16.01 47.8639 15.0545 47.1594 14.35L34.6594 1.85C34.311 1.5004 33.897 1.22301 33.4412 1.03374C32.9854 0.844468 32.4967 0.74704 32.0031 0.74704C31.5096 0.74704 31.0209 0.844468 30.5651 1.03374C30.1092 1.22301 29.6953 1.5004 29.3469 1.85L16.8469 14.35C16.4981 14.6988 16.2213 15.1129 16.0326 15.5687C15.8438 16.0245 15.7466 16.5129 15.7466 17.0062C15.7466 18.0025 16.1424 18.958 16.8469 19.6625C17.5514 20.367 18.5068 20.7628 19.5031 20.7628C20.4994 20.7628 21.4549 20.367 22.1594 19.6625L22.1531 19.6531Z" fill="#005EFF"/>
</svg>
